<svg width="40" height="40" viewBox="0 0 40 40" fill="none" xmlns="http://www.w3.org/2000/svg">
<path d="M38.3334 0H1.66664C0.745 0 0 0.746641 0 1.66664V38.3333C0 39.2534 0.745 40 1.66664 40H38.3333C39.2549 40 39.9999 39.2534 39.9999 38.3334V1.66664C40 0.746641 39.255 0 38.3334 0ZM31.6666 21.6666H21.6666V31.6666C21.6666 32.5866 20.9216 33.3333 20 33.3333C19.0784 33.3333 18.3334 32.5866 18.3334 31.6666V21.6666H8.33336C7.41172 21.6666 6.66672 20.92 6.66672 20C6.66672 19.08 7.41172 18.3334 8.33336 18.3334H18.3334V8.33336C18.3334 7.41336 19.0784 6.66672 20 6.66672C20.9216 6.66672 21.6666 7.41336 21.6666 8.33336V18.3334H31.6666C32.5883 18.3334 33.3333 19.08 33.3333 20C33.3333 20.92 32.5884 21.6666 31.6666 21.6666Z" fill="#FF845D"/>
</svg>
