 <svg width="24" height="24" viewBox="0 0 24 24" fill="none" xmlns="http://www.w3.org/2000/svg">
                            <path d="M23.8754 10.2643H16.9058C16.4934 9.09982 15.68 8.12017 14.6112 7.50073C13.5424 6.88129 12.288 6.66249 11.0726 6.88352C9.85725 7.10455 8.76022 7.75096 7.97795 8.70704C7.19568 9.66311 6.77926 10.8664 6.80324 12.1015C6.82722 13.3366 7.29003 14.5228 8.10882 15.4478C8.92761 16.3728 10.0489 16.9761 11.2719 17.1498C12.495 17.3235 13.7399 17.0562 14.7839 16.3957C15.8278 15.7353 16.6026 14.7248 16.9695 13.5452H20.582C20.2297 15.5055 19.2171 17.2861 17.7124 18.591C16.2078 19.8959 14.3018 20.6465 12.3114 20.7179C10.321 20.7893 8.36618 20.1772 6.77189 18.9835C5.1776 17.7898 4.03994 16.0863 3.54809 14.1564C3.05623 12.2264 3.23981 10.1862 4.06831 8.37505C4.8968 6.56389 6.32028 5.09088 8.10207 4.20095C9.88385 3.31103 11.9166 3.0578 13.8622 3.48339C15.8079 3.90898 17.5493 4.98774 18.7968 6.54029L21.1285 4.20854C20.0027 2.88755 18.6033 1.82702 17.0271 1.10034C15.4509 0.373674 13.7356 -0.00177008 12 6.27408e-06C5.3727 6.27408e-06 0 5.37271 0 12C0 18.6273 5.3727 24 12 24C18.6273 24 24 18.6256 24 12C24.0004 11.4192 23.9588 10.8391 23.8754 10.2643ZM12 14.1077C11.5827 14.1077 11.1748 13.9839 10.8279 13.7521C10.481 13.5202 10.2106 13.1907 10.051 12.8051C9.89141 12.4196 9.84974 11.9954 9.93127 11.5861C10.0128 11.1769 10.2139 10.8011 10.509 10.5061C10.8042 10.2112 11.1802 10.0104 11.5895 9.92924C11.9988 9.84804 12.423 9.89005 12.8084 10.05C13.1938 10.2099 13.5231 10.4805 13.7547 10.8276C13.9863 11.1747 14.1097 11.5827 14.1094 12C14.1093 12.2769 14.0547 12.5511 13.9486 12.8069C13.8426 13.0627 13.6872 13.2951 13.4913 13.4908C13.2954 13.6865 13.0629 13.8417 12.807 13.9476C12.5511 14.0534 12.2769 14.1078 12 14.1077Z" fill="#FF845D"/>
</svg>