<svg id="icon_white" xmlns="http://www.w3.org/2000/svg" viewBox="0 0 1080 1080"><defs><style>.cls-1{fill:#fff;}</style></defs><path class="cls-1" d="M979.39,475.83H721.52A192.52,192.52,0,0,0,540,347.48c-106.32,0-192.52,86.2-192.52,192.52S433.68,732.52,540,732.52A192.63,192.63,0,0,0,723.88,597.23H857.53c-27,150.86-158.9,265.36-317.53,265.36-178.15,0-322.59-144.44-322.59-322.59S361.85,217.41,540,217.41A322,322,0,0,1,791.48,338l86.24-86.24C796.24,156.43,675.18,96,540,96,294.79,96,96,294.79,96,540S294.79,984,540,984,984,785.21,984,540A445.38,445.38,0,0,0,979.39,475.83ZM540,618.05a78,78,0,1,1,78-78A78,78,0,0,1,540,618.05Z"/></svg>