<svg width="195" height="168" viewBox="0 0 195 168" fill="none" xmlns="http://www.w3.org/2000/svg">
<path d="M156.116 50.5337H121.715C119.679 44.8023 115.664 39.9807 110.389 36.9322C105.113 33.8838 98.9222 32.8075 92.9238 33.896C86.9254 34.9845 81.5113 38.1668 77.6508 42.8732C73.7903 47.5795 71.7356 53.5026 71.8544 59.5819C71.9732 65.6613 74.2579 71.5 78.2993 76.0527C82.3407 80.6055 87.875 83.5749 93.9115 84.4295C99.9479 85.2841 106.092 83.968 111.244 80.7168C116.397 77.4657 120.22 72.4917 122.031 66.6855H139.857C136.26 86.7567 118.658 101.99 97.5 101.99C73.7344 101.99 54.4642 82.7736 54.4642 59.0719C54.4642 35.3702 73.7344 16.1518 97.5 16.1518C103.94 16.1458 110.299 17.5839 116.106 20.3597C121.913 23.1355 127.02 27.178 131.05 32.1881L142.552 20.7148C136.996 14.213 130.089 8.99297 122.31 5.41623C114.531 1.83949 106.066 -0.00855446 97.5 2.97688e-05C64.7896 2.97688e-05 38.2688 26.4475 38.2688 59.0719C38.2688 91.6963 64.7896 118.144 97.5 118.144C130.21 118.144 156.731 91.6943 156.731 59.0719C156.733 56.2147 156.527 53.3612 156.116 50.5337ZM97.5 69.4492C95.4409 69.4492 93.4279 68.8402 91.7158 67.6993C90.0037 66.5584 88.6692 64.9367 87.8812 63.0394C87.0932 61.1421 86.887 59.0544 87.2887 57.0402C87.6905 55.0261 88.6821 53.1759 90.1381 51.7238C91.5942 50.2717 93.4493 49.2828 95.4689 48.8821C97.4885 48.4815 99.5818 48.6871 101.484 49.473C103.387 50.2589 105.013 51.5897 106.157 53.2973C107.301 55.0048 107.911 57.0123 107.911 59.0659C107.912 60.4295 107.642 61.7799 107.119 63.0397C106.596 64.2996 105.829 65.4444 104.863 66.4086C103.896 67.3728 102.748 68.1376 101.485 68.6594C100.221 69.1811 98.8673 69.4495 97.5 69.4492Z" fill="url(#paint0_linear_103_222)"/>
<path d="M13.7958 137.81H14.0835C17.6146 137.81 20.79 139.23 23.6098 142.071C24.5666 143.084 25.3941 144.212 26.0732 145.428C26.0827 145.515 26.1107 145.598 26.1552 145.673C24.5382 146.549 23.6897 146.986 23.6098 146.984H23.5758C23.2735 146.219 22.6028 145.236 21.5639 144.035C19.3461 141.797 16.8281 140.678 14.0096 140.678H13.8458C10.7503 140.678 8.04042 142.015 5.71614 144.691C3.85138 147.119 2.919 149.794 2.919 152.717V152.88C2.90403 155.783 3.89177 158.603 5.71614 160.865C8.01378 163.569 10.751 164.921 13.9277 164.919C16.581 164.919 18.9898 163.936 21.1543 161.97C22.2478 160.825 22.9458 159.911 23.2481 159.227C23.6304 158.655 24.03 157.755 24.4469 156.525C24.5548 156.142 24.6647 155.652 24.7746 155.05H16.563C16.5473 155.05 16.5318 155.046 16.5177 155.039C16.5036 155.032 16.4911 155.022 16.4811 155.01V152.221L16.563 152.181H27.8534L27.8954 152.221C27.8827 153.877 27.6762 155.526 27.28 157.134C26.2664 160.41 24.5009 163.045 21.9834 165.039C19.4927 166.868 16.8101 167.782 13.9357 167.781C10.4033 167.781 7.25522 166.457 4.49139 163.81C3.34324 162.614 2.52208 161.522 2.02792 160.534C0.709473 158.212 0.0111894 155.591 0 152.922V152.723C0 148.791 1.34129 145.31 4.02387 142.28C5.17336 141.084 6.15901 140.252 6.98084 139.783C9.17059 138.468 11.4423 137.81 13.7958 137.81Z" fill="#FEE588"/>
<path d="M41.1419 148.172H41.6754C43.7825 148.172 45.7805 148.991 47.6692 150.629C49.831 152.704 50.9126 155.188 50.9139 158.081C50.9139 161.003 49.7777 163.527 47.5054 165.653C45.6406 167.18 43.6147 167.945 41.4276 167.946C39.0474 167.946 36.8989 167.072 34.9822 165.324C32.9563 163.25 31.9434 160.859 31.9434 158.151V157.951C31.9434 155.249 32.9563 152.858 34.9822 150.778C36.8989 149.041 38.9522 148.172 41.1419 148.172ZM34.8184 158.081V158.163C34.8184 160.102 35.5437 161.808 36.9942 163.282C38.3088 164.509 39.7866 165.123 41.4276 165.125C43.4815 165.125 45.2337 164.169 46.6842 162.257C47.5285 161.023 47.9861 159.567 47.9989 158.073C47.9989 155.998 47.2323 154.21 45.6992 152.709C44.4126 151.617 43.03 151.071 41.5515 151.071H41.2238C39.6082 151.071 38.0891 151.767 36.6665 153.159C35.4652 154.518 34.8073 156.27 34.8184 158.081Z" fill="#FEE588"/>
<path d="M64.3802 148.13C67.0627 148.13 69.2119 149.236 70.8275 151.448C70.8316 151.491 70.8453 151.532 70.8675 151.569V148.381C70.8955 148.381 70.9234 148.355 70.9494 148.299H73.7006C73.7006 148.327 73.7286 148.355 73.7825 148.381V167.751C73.7511 167.753 73.7217 167.767 73.7006 167.791H70.9494C70.9338 167.79 70.9185 167.786 70.9044 167.779C70.8904 167.772 70.8778 167.763 70.8675 167.751V164.563C69.389 166.829 67.158 167.962 64.1744 167.962H64.1344C61.4785 167.962 59.1515 166.911 57.1536 164.808C55.4846 162.79 54.6501 160.579 54.6501 158.175V157.975C54.6501 155.382 55.5672 153.09 57.4013 151.097C59.3433 149.119 61.6696 148.13 64.3802 148.13ZM57.5232 157.957V158.081C57.5232 160.375 58.4403 162.259 60.2744 163.732C61.3518 164.611 62.7005 165.091 64.0925 165.093C67.0761 165.093 69.1406 163.646 70.2861 160.753C70.554 159.919 70.6928 159.049 70.6977 158.173V157.764C70.6977 156.569 70.3281 155.326 69.5888 154.036C68.3021 152.043 66.5779 151.047 64.4161 151.047C61.5417 151.047 59.4479 152.412 58.1346 155.142C57.7461 156.031 57.5383 156.988 57.5232 157.957Z" fill="#FEE588"/>
<path d="M82.857 137.81H82.8969V167.785H79.9819V137.81H82.857Z" fill="#FEE588"/>
<path d="M95.3381 148.009H95.5859C96.9914 148.011 98.3742 148.363 99.6098 149.031C100.079 149.281 100.52 149.583 100.922 149.931C101.278 150.231 101.607 150.561 101.907 150.916C102.033 151.068 102.143 151.232 102.237 151.406C100.976 152.118 100.155 152.609 99.7736 152.88H99.7316C99.4346 152.446 99.0585 152.071 98.6228 151.775C97.7477 151.201 96.6821 150.914 95.4261 150.916C94.0035 150.916 92.8407 151.256 91.9376 151.938C91.3063 152.484 90.9913 153.082 90.9926 153.731C90.9792 153.96 91.0296 154.188 91.1382 154.391C91.2468 154.593 91.4094 154.761 91.608 154.877C91.802 155.05 92.0243 155.189 92.2653 155.287C92.8407 155.586 93.867 155.914 95.3441 156.27C96.0294 156.405 96.8906 156.571 97.9415 156.76C98.5221 156.89 99.0868 157.082 99.6257 157.334C100.066 157.543 100.479 157.805 100.856 158.113C101.138 158.321 101.399 158.553 101.638 158.808C102.423 159.672 102.861 160.794 102.868 161.961V162.104C102.868 163.3 102.417 164.446 101.514 165.543C101.263 165.826 100.989 166.087 100.693 166.322C100.313 166.61 99.912 166.87 99.4939 167.099C98.2206 167.691 96.8329 167.999 95.4281 168H95.1823C93.6487 167.994 92.1398 167.614 90.7868 166.894C89.4832 166.14 88.4057 165.051 87.666 163.742C87.694 163.714 88.0916 163.497 88.8648 163.086C89.1671 162.923 89.6054 162.691 90.1794 162.391C90.7917 163.468 91.7662 164.295 92.9306 164.724C93.7079 165 94.5272 165.138 95.3521 165.135C96.4724 165.155 97.5772 164.872 98.5488 164.316C98.8293 164.137 99.0911 163.931 99.33 163.7C99.7406 163.251 99.9742 162.669 99.9874 162.062C99.9874 161.162 99.426 160.438 98.3031 159.892C98.0014 159.783 97.5898 159.661 97.0704 159.524C94.8806 159.142 93.1704 158.733 91.9396 158.296C89.4195 157.34 88.1602 155.838 88.1615 153.791V153.709C88.1615 152.482 88.6277 151.335 89.5601 150.27C89.8563 149.977 90.1713 149.704 90.5031 149.451C91.1477 148.994 91.872 148.661 92.6389 148.469C93.5078 148.171 94.4194 148.016 95.3381 148.009Z" fill="#FEE588"/>
<path d="M115.082 148.861H115.162C117.771 148.861 119.995 150.003 121.833 152.287C123.165 154.12 123.831 156.086 123.831 158.185V158.464C123.831 160.987 122.899 163.246 121.034 165.238C119.33 166.937 117.346 167.786 115.082 167.785C112.445 167.785 110.18 166.616 108.289 164.28C107.04 162.566 106.369 160.502 106.371 158.384V158.264C106.371 155.687 107.277 153.416 109.088 151.45C110.846 149.724 112.844 148.861 115.082 148.861ZM107.931 158.304C107.931 160.906 108.943 163.071 110.966 164.798C112.154 165.722 113.615 166.227 115.122 166.233C117.12 166.233 118.864 165.409 120.355 163.762C121.644 162.237 122.339 160.299 122.312 158.304C122.329 156.277 121.588 154.317 120.235 152.805C118.769 151.211 117.052 150.414 115.082 150.414C112.844 150.414 110.94 151.462 109.37 153.56C108.436 154.967 107.936 156.617 107.933 158.304H107.931Z" fill="#FEE588"/>
<path d="M136.696 138.621H137.295V140.186C137.29 140.185 137.284 140.186 137.279 140.187C137.274 140.189 137.269 140.192 137.266 140.196C137.262 140.2 137.259 140.204 137.257 140.209C137.255 140.215 137.255 140.22 137.255 140.225H136.816C135.297 140.225 134.059 140.863 133.101 142.138C132.063 143.519 131.543 145.497 131.543 148.074V148.871H137.295V150.425H131.543V167.795H129.985V150.416H126.151V148.861H129.985V147.905C129.985 144.956 130.664 142.619 132.023 140.893C132.314 140.522 132.65 140.187 133.022 139.897C133.766 139.342 134.625 138.96 135.537 138.781C135.915 138.681 136.305 138.628 136.696 138.621Z" fill="#FEE588"/>
<path d="M140.31 137.81H145.073C145.181 137.894 146.974 141.839 150.452 149.646C151.682 152.376 153.516 156.471 155.952 161.931H156.04C157.846 157.917 161.459 149.881 166.879 137.82H171.674C171.69 137.821 171.705 137.825 171.719 137.833C171.733 137.84 171.746 137.85 171.756 137.862V167.751L171.674 167.791H167.614L167.572 167.751V145.878H167.532C165.916 149.509 162.659 156.77 157.76 167.663C157.726 167.699 157.699 167.74 157.678 167.785H154.31C154.283 167.785 154.078 167.348 153.694 166.476C151.643 161.889 148.562 155.023 144.452 145.878H144.412V167.745L144.37 167.785H140.31C140.294 167.784 140.279 167.781 140.265 167.774C140.251 167.767 140.238 167.757 140.228 167.745V137.856L140.31 137.81Z" fill="#FEE588"/>
<path d="M178.865 137.81H195V141.742H182.813V150.834H192.461L192.501 150.874V154.731L192.461 154.771H182.813V163.863H195V167.793H178.817V137.81H178.865Z" fill="#FEE588"/>
<defs>
<linearGradient id="paint0_linear_103_222" x1="46.1967" y1="88.6118" x2="147.805" y2="29.789" gradientUnits="userSpaceOnUse">
<stop stop-color="#FEE588"/>
<stop offset="0.25" stop-color="#FEC285"/>
<stop offset="0.81" stop-color="#FC697E"/>
<stop offset="1" stop-color="#FC4A7B"/>
</linearGradient>
</defs>
</svg>
