<svg width="24" height="24" viewBox="0 0 24 24" fill="none" xmlns="http://www.w3.org/2000/svg">
<path d="M23.6751 23.275L21.1161 20.5981C21.8646 19.7758 22.325 18.6869 22.325 17.4899C22.3246 14.9377 20.2488 12.8615 17.6962 12.8615C15.1436 12.8615 13.0677 14.9377 13.0677 17.4899C13.0677 20.042 15.144 22.1183 17.6962 22.1183C18.7427 22.1183 19.706 21.765 20.4824 21.1768L23.0551 23.8679C23.1392 23.9558 23.2519 24.0004 23.3651 24.0004C23.4718 24.0004 23.5782 23.9609 23.6613 23.8816C23.8324 23.7174 23.8388 23.446 23.6751 23.275ZM13.9256 17.4899C13.9256 15.4106 15.6173 13.7189 17.6966 13.7189C19.7759 13.7189 21.4676 15.4106 21.4676 17.4899C21.4676 19.5692 19.7759 21.2609 17.6966 21.2609C15.6173 21.2609 13.9256 19.5692 13.9256 17.4899Z" fill="#F2F2F2"/>
<path d="M11.8648 18.4348C11.8648 18.4348 11.782 17.9255 11.782 17.5774H11.7863C11.7859 17.5478 11.782 17.5195 11.782 17.4899C11.782 15.0064 13.3228 12.8791 15.4969 12.0041H11.782C11.5454 12.0041 11.3533 11.8124 11.3533 11.5754C11.3533 11.3383 11.5454 11.1466 11.782 11.1466H19.4989C19.7356 11.1466 19.9276 11.3383 19.9276 11.5754C19.9276 11.7318 19.8398 11.8626 19.7146 11.9376C21.4556 12.5726 22.8181 13.998 23.3574 15.7819V5.22006C23.3574 2.34165 21.0157 0 18.1373 0H5.42629C2.54789 0 0.206665 2.34165 0.206665 5.22006V17.9307C0.206665 20.8091 2.54789 23.1507 5.42629 23.1507H15.9882C13.8514 22.5046 12.2275 20.6792 11.8648 18.4348ZM11.782 5.1446H19.4989C19.7356 5.1446 19.9276 5.33624 19.9276 5.57332C19.9276 5.8104 19.7356 6.00204 19.4989 6.00204H11.782C11.5454 6.00204 11.3533 5.8104 11.3533 5.57332C11.3533 5.33624 11.5449 5.1446 11.782 5.1446ZM9.07553 16.1412L6.13582 19.5705C6.05136 19.6691 5.93132 19.7205 5.80999 19.7205C5.72039 19.7205 5.62993 19.6927 5.55276 19.6348L3.5931 18.1647C3.40361 18.0228 3.36545 17.754 3.50736 17.565C3.64969 17.3755 3.91807 17.3377 4.10756 17.4792L5.74612 18.7079L8.42474 15.5839C8.57865 15.4038 8.85003 15.3832 9.02923 15.5376C9.20929 15.6915 9.22987 15.9616 9.07553 16.1412ZM9.07553 9.71044L6.13582 13.1402C6.05136 13.2388 5.93132 13.2902 5.80999 13.2902C5.72039 13.2902 5.62993 13.2624 5.55276 13.2045L3.5931 11.7344C3.40361 11.5925 3.36545 11.3237 3.50736 11.1346C3.64969 10.9451 3.91807 10.907 4.10756 11.0489L5.74612 12.2776L8.42474 9.15311C8.57865 8.97304 8.85003 8.95247 9.02923 9.1068C9.20929 9.26071 9.22987 9.53081 9.07553 9.71044ZM9.07553 3.7084L6.13582 7.13814C6.05136 7.23674 5.93132 7.28819 5.80999 7.28819C5.72039 7.28819 5.62993 7.26032 5.55276 7.20244L3.5931 5.73237C3.40361 5.59047 3.36545 5.32166 3.50736 5.1326C3.64969 4.94311 3.91807 4.90495 4.10756 5.04686L5.74612 6.27556L8.42474 3.15107C8.57865 2.97101 8.85003 2.95043 9.02923 3.10477C9.20929 3.25868 9.22987 3.52877 9.07553 3.7084Z" fill="#F2F2F2"/>
</svg>
