<svg width="32" height="32" viewBox="0 0 32 32" fill="none" xmlns="http://www.w3.org/2000/svg">
<path d="M31.8338 13.6874H22.5412C21.9912 12.135 20.9066 10.829 19.4816 10.0033C18.0566 9.17764 16.3842 8.88612 14.7638 9.18095C13.1435 9.47579 11.681 10.3377 10.6382 11.6125C9.59536 12.8872 9.04031 14.4915 9.07241 16.1382C9.1045 17.7848 9.72164 19.3662 10.8133 20.5994C11.905 21.8325 13.4 22.6368 15.0306 22.8683C16.6612 23.0998 18.321 22.7433 19.7127 21.8627C21.1045 20.9821 22.1374 19.6349 22.6265 18.0622H27.4417C26.4702 23.4986 21.7154 27.6246 16 27.6246C9.58025 27.6246 4.37482 22.4198 4.37482 16C4.37482 9.58025 9.58025 4.37483 16 4.37483C17.7396 4.3732 19.4573 4.76271 21.026 5.51456C22.5947 6.2664 23.9743 7.36133 25.0627 8.71835L28.1697 5.61075C26.6689 3.84967 24.8032 2.43581 22.7019 1.46702C20.6006 0.498238 18.3139 -0.00231703 16 8.06306e-06C7.164 8.06306e-06 0 7.16347 0 16C0 24.8365 7.164 32 16 32C24.836 32 32 24.836 32 16C32.0005 15.2261 31.945 14.4532 31.8338 13.6874V13.6874ZM16 18.8108C15.4438 18.8108 14.9 18.6458 14.4375 18.3368C13.975 18.0278 13.6146 17.5885 13.4017 17.0746C13.1888 16.5607 13.1331 15.9953 13.2417 15.4497C13.3502 14.9042 13.618 14.403 14.0113 14.0097C14.4047 13.6164 14.9058 13.3486 15.4513 13.24C15.9969 13.1315 16.5624 13.1872 17.0763 13.4001C17.5901 13.6129 18.0294 13.9734 18.3384 14.4359C18.6474 14.8984 18.8124 15.4421 18.8124 15.9984C18.8125 16.3677 18.7398 16.7335 18.5984 17.0747C18.4571 17.416 18.25 17.726 17.9888 17.9872C17.7276 18.2484 17.4176 18.4555 17.0763 18.5968C16.7351 18.7381 16.3693 18.8108 16 18.8108V18.8108Z" fill="url(#paint0_linear_103_248)"/>
<defs>
<linearGradient id="paint0_linear_103_248" x1="2.14154" y1="24.0011" x2="29.6258" y2="8.13277" gradientUnits="userSpaceOnUse">
<stop stop-color="#FEE588"/>
<stop offset="0.25" stop-color="#FEC285"/>
<stop offset="0.81" stop-color="#FC697E"/>
<stop offset="1" stop-color="#FC4A7B"/>
</linearGradient>
</defs>
</svg>
