<svg width="67" height="34" viewBox="0 0 67 34" fill="none" xmlns="http://www.w3.org/2000/svg">
<rect width="67" height="34" rx="8" fill="white"/>
<path d="M33 12C30.24 12 28 14.24 28 17C28 19.76 30.24 22 33 22C35.76 22 38 19.76 38 17C38 14.24 35.76 12 33 12ZM23 18H25C25.55 18 26 17.55 26 17C26 16.45 25.55 16 25 16H23C22.45 16 22 16.45 22 17C22 17.55 22.45 18 23 18ZM41 18H43C43.55 18 44 17.55 44 17C44 16.45 43.55 16 43 16H41C40.45 16 40 16.45 40 17C40 17.55 40.45 18 41 18ZM32 7V9C32 9.55 32.45 10 33 10C33.55 10 34 9.55 34 9V7C34 6.45 33.55 6 33 6C32.45 6 32 6.45 32 7ZM32 25V27C32 27.55 32.45 28 33 28C33.55 28 34 27.55 34 27V25C34 24.45 33.55 24 33 24C32.45 24 32 24.45 32 25ZM26.99 9.58C26.6 9.19 25.96 9.19 25.58 9.58C25.19 9.97 25.19 10.61 25.58 10.99L26.64 12.05C27.03 12.44 27.67 12.44 28.05 12.05C28.43 11.66 28.44 11.02 28.05 10.64L26.99 9.58ZM39.36 21.95C38.97 21.56 38.33 21.56 37.95 21.95C37.56 22.34 37.56 22.98 37.95 23.36L39.01 24.42C39.4 24.81 40.04 24.81 40.42 24.42C40.81 24.03 40.81 23.39 40.42 23.01L39.36 21.95ZM40.42 10.99C40.81 10.6 40.81 9.96 40.42 9.58C40.03 9.19 39.39 9.19 39.01 9.58L37.95 10.64C37.56 11.03 37.56 11.67 37.95 12.05C38.34 12.43 38.98 12.44 39.36 12.05L40.42 10.99ZM28.05 23.36C28.44 22.97 28.44 22.33 28.05 21.95C27.66 21.56 27.02 21.56 26.64 21.95L25.58 23.01C25.19 23.4 25.19 24.04 25.58 24.42C25.97 24.8 26.61 24.81 26.99 24.42L28.05 23.36Z" fill="#FF845D"/>
</svg>
